<?xml version="1.0" encoding="utf-8"?>
<!-- Generator: Adobe Illustrator 23.0.6, SVG Export Plug-In . SVG Version: 6.00 Build 0)  -->
<svg version="1.1" id="Layer_1" xmlns="http://www.w3.org/2000/svg" xmlns:xlink="http://www.w3.org/1999/xlink" x="0px" y="0px"
	 viewBox="0 0 150 150" style="enable-background:new 0 0 150 150;" xml:space="preserve">
<style type="text/css">
	.st0{fill:#5AC8DC;}
	.st1{font-family:'Arial-BoldMT';}
	.st2{font-size:44.9765px;}
</style>
<g id="_1128814561072">
	<path class="st0" d="M51.56,18.07c-2.1-0.99-3.68-2.82-4.34-5.05c4.1-1.77,8.87,0.12,10.64,4.22c0.13,0.3,0.24,0.61,0.33,0.92
		C56.07,19.09,53.66,19.05,51.56,18.07z"/>
	<path class="st0" d="M52.23,8.64c-0.97,2.1-2.8,3.69-5.02,4.36c-1.78-4.14,0.13-8.93,4.26-10.72c0.28-0.12,0.56-0.22,0.85-0.31
		C53.25,4.1,53.21,6.53,52.23,8.64z"/>
	<path class="st0" d="M42.92,22.48c-2.24-0.6-4.11-2.14-5.14-4.21c3.73-2.46,8.74-1.43,11.2,2.3c0.18,0.27,0.34,0.56,0.49,0.85
		C47.54,22.7,45.15,23.08,42.92,22.48z"/>
	<path class="st0" d="M41.95,13.08c-0.59,2.24-2.12,4.12-4.19,5.17c-2.47-3.78-1.41-8.84,2.37-11.31c0.25-0.16,0.5-0.31,0.77-0.44
		C42.17,8.44,42.55,10.83,41.95,13.08z"/>
	<path class="st0" d="M35.17,28.35c-2.31-0.2-4.42-1.39-5.8-3.25c3.25-3.07,8.37-2.93,11.44,0.32c0.22,0.24,0.43,0.49,0.63,0.75
		C39.75,27.75,37.47,28.55,35.17,28.35z"/>
	<path class="st0" d="M32.59,19.25c-0.19,2.31-1.37,4.43-3.22,5.82c-3.09-3.3-2.92-8.47,0.38-11.56c0.21-0.2,0.44-0.39,0.67-0.57
		C32.01,14.65,32.8,16.94,32.59,19.25L32.59,19.25z"/>
	<path class="st0" d="M28.54,35.48c-2.31,0.21-4.59-0.59-6.27-2.18c2.65-3.59,7.71-4.35,11.3-1.7c0.27,0.2,0.52,0.41,0.76,0.64
		C32.95,34.1,30.84,35.28,28.54,35.48z"/>
	<path class="st0" d="M24.42,26.98c0.21,2.31-0.58,4.61-2.17,6.3c-3.61-2.72-4.33-7.85-1.61-11.46c0.17-0.23,0.36-0.45,0.56-0.66
		C23.05,22.55,24.22,24.67,24.42,26.98L24.42,26.98z"/>
	<path class="st0" d="M23.23,43.68c-2.24,0.6-4.62,0.22-6.55-1.06c1.99-4,6.84-5.63,10.84-3.64c0.29,0.15,0.58,0.31,0.85,0.49
		C27.34,41.55,25.47,43.08,23.23,43.68z"/>
	<path class="st0" d="M17.71,36.03c0.6,2.24,0.21,4.64-1.06,6.58c-4.02-2.05-5.62-6.97-3.58-10.99c0.13-0.26,0.28-0.52,0.44-0.77
		C15.59,31.9,17.12,33.78,17.71,36.03z"/>
	<path class="st0" d="M19.41,52.7c-2.09,0.99-4.51,1.02-6.63,0.1c1.27-4.29,5.77-6.74,10.06-5.47c0.31,0.09,0.62,0.2,0.92,0.33
		C23.09,49.88,21.51,51.72,19.41,52.7z"/>
	<path class="st0" d="M12.66,46.11c0.98,2.11,1.01,4.53,0.1,6.67c-4.31-1.31-6.74-5.87-5.43-10.17c0.09-0.29,0.19-0.58,0.31-0.85
		C9.86,42.42,11.68,44.01,12.66,46.11z"/>
	<path class="st0" d="M17.2,62.23c-1.89,1.33-4.26,1.79-6.51,1.25c0.51-4.45,4.52-7.64,8.97-7.14c0.32,0.04,0.63,0.09,0.94,0.16
		C20.33,58.82,19.1,60.9,17.2,62.23z"/>
	<path class="st0" d="M9.4,56.93c1.33,1.91,1.79,4.29,1.25,6.55c-2.3-0.27-4.38-1.52-5.7-3.42c-1.33-1.91-1.78-4.29-1.25-6.55
		C6.01,53.78,8.08,55.03,9.4,56.93z"/>
	<path class="st0" d="M16.65,72.02c-1.63,1.64-3.88,2.5-6.19,2.37c-0.14-2.32,0.71-4.58,2.34-6.23c1.63-1.65,3.89-2.51,6.2-2.37
		C19.14,68.1,18.29,70.37,16.65,72.02z"/>
	<path class="st0" d="M8.06,68.16c1.64,1.65,2.5,3.91,2.36,6.23c-4.49,0.24-8.32-3.19-8.56-7.68c-0.01-0.13-0.01-0.26-0.01-0.4
		v-0.13c0-0.13,0-0.27,0-0.4c2.31-0.14,4.57,0.73,6.2,2.37L8.06,68.16z"/>
	<path class="st0" d="M17.79,81.68c-1.32,1.9-3.4,3.15-5.7,3.42c-1.03-4.38,1.68-8.77,6.06-9.81c0.29-0.07,0.59-0.12,0.88-0.16
		C19.57,77.39,19.11,79.77,17.79,81.68z"/>
	<path class="st0" d="M8.67,79.37c1.9,1.33,3.14,3.42,3.4,5.73c-2.25,0.54-4.62,0.08-6.51-1.26c-1.89-1.33-3.13-3.41-3.4-5.71
		C4.4,77.58,6.78,78.03,8.67,79.37z"/>
	<path class="st0" d="M20.61,91c-0.97,2.1-2.8,3.69-5.02,4.36c-0.92-2.14-0.88-4.56,0.1-6.67c0.98-2.11,2.81-3.7,5.03-4.36
		C21.63,86.46,21.59,88.89,20.61,91z"/>
	<path class="st0" d="M11.22,90.32c2.1,0.98,3.68,2.82,4.34,5.04c-4.11,1.77-8.87-0.13-10.63-4.24c-0.13-0.3-0.24-0.6-0.33-0.91
		c2.12-0.92,4.54-0.88,6.63,0.1L11.22,90.32z"/>
	<path class="st0" d="M25,99.68c-0.59,2.25-2.12,4.14-4.19,5.18c-1.27-1.95-1.65-4.34-1.05-6.58c0.59-2.25,2.12-4.13,4.19-5.18
		C25.22,95.04,25.6,97.43,25,99.68L25,99.68z"/>
	<path class="st0" d="M15.64,100.65c2.24,0.6,4.11,2.13,5.15,4.21c-3.73,2.46-8.74,1.43-11.2-2.3c-0.18-0.27-0.35-0.56-0.49-0.85
		C11.02,100.43,13.4,100.05,15.64,100.65z"/>
	<path class="st0" d="M30.83,107.47c-0.2,2.31-1.37,4.43-3.22,5.83c-3.09-3.3-2.92-8.47,0.38-11.56c0.21-0.2,0.44-0.39,0.67-0.56
		C30.25,102.87,31.04,105.16,30.83,107.47L30.83,107.47z"/>
	<path class="st0" d="M21.78,110.07c2.31,0.2,4.42,1.38,5.8,3.25c-3.24,3.07-8.36,2.93-11.43-0.31c-0.23-0.24-0.44-0.49-0.63-0.75
		C17.19,110.66,19.48,109.86,21.78,110.07z"/>
	<path class="st0" d="M37.94,114.14c0.2,2.31-0.59,4.6-2.18,6.3c-3.61-2.72-4.33-7.84-1.61-11.45c0.18-0.23,0.36-0.46,0.56-0.67
		C36.56,109.71,37.73,111.83,37.94,114.14L37.94,114.14z"/>
	<path class="st0" d="M29.47,118.27c2.31-0.2,4.59,0.59,6.27,2.19c-2.66,3.59-7.72,4.35-11.32,1.69c-0.26-0.19-0.51-0.4-0.75-0.63
		C25.05,119.66,27.16,118.47,29.47,118.27z"/>
	<path class="st0" d="M46.09,119.47c0.6,2.24,0.22,4.64-1.05,6.58c-4.02-2.05-5.63-6.97-3.58-10.99c0.13-0.26,0.28-0.51,0.44-0.76
		C43.97,115.34,45.5,117.23,46.09,119.47L46.09,119.47z"/>
	<path class="st0" d="M38.47,125.02c2.23-0.6,4.62-0.22,6.55,1.06c-1.98,4-6.83,5.63-10.83,3.65c-0.3-0.15-0.59-0.31-0.87-0.5
		C34.35,127.15,36.23,125.61,38.47,125.02z"/>
	<path class="st0" d="M55.05,123.32c0.98,2.11,1.01,4.53,0.1,6.67c-2.22-0.67-4.05-2.25-5.02-4.36c-0.98-2.11-1.01-4.53-0.1-6.67
		C52.25,119.63,54.08,121.22,55.05,123.32z"/>
	<path class="st0" d="M48.51,130.1c2.09-0.99,4.51-1.02,6.63-0.1c-1.27,4.29-5.78,6.74-10.07,5.47c-0.31-0.09-0.61-0.2-0.91-0.33
		C44.82,132.92,46.4,131.08,48.51,130.1L48.51,130.1z"/>
	<path class="st0" d="M62.97,10.05c-2.17,0.8-4.58,0.62-6.62-0.48c1.63-4.16,6.33-6.21,10.49-4.58c0.31,0.12,0.6,0.26,0.89,0.41
		C66.89,7.56,65.15,9.25,62.97,10.05z"/>
	<path class="st0" d="M83.91,148.52c-11.06-11-21.34-15.34-28.95-17.93c-0.73-0.25-1.41-0.48-2.03-0.7
		C27.08,120.8,9.7,96.75,9.7,70.04c0-30.05,21.98-56.26,52.25-62.33l0.19,0.97c-29.82,5.97-51.46,31.78-51.46,61.36
		c0,26.29,17.11,49.96,42.57,58.92c0.62,0.22,1.29,0.45,2.02,0.7c7.69,2.62,21.37,7,32.59,18.17L83.91,148.52z"/>
	<path class="st0" d="M98.19,18.07c2.1-0.99,3.68-2.82,4.34-5.05c-4.1-1.77-8.87,0.12-10.64,4.22c-0.13,0.3-0.24,0.61-0.33,0.92
		C93.68,19.09,96.1,19.05,98.19,18.07L98.19,18.07z"/>
	<path class="st0" d="M97.52,8.64c0.97,2.1,2.8,3.69,5.02,4.36c1.78-4.14-0.13-8.94-4.27-10.72c-0.28-0.12-0.56-0.22-0.84-0.31
		C96.51,4.1,96.54,6.53,97.52,8.64z"/>
	<path class="st0" d="M106.84,22.48c2.24-0.6,4.11-2.14,5.14-4.21c-3.72-2.46-8.74-1.43-11.2,2.29c-0.18,0.28-0.35,0.56-0.49,0.86
		C102.22,22.7,104.6,23.08,106.84,22.48z"/>
	<path class="st0" d="M107.81,13.08c0.59,2.24,2.12,4.12,4.19,5.17c2.47-3.78,1.4-8.85-2.38-11.31c-0.24-0.16-0.5-0.31-0.76-0.44
		C107.59,8.44,107.2,10.83,107.81,13.08z"/>
	<path class="st0" d="M114.59,28.35c2.31-0.2,4.42-1.39,5.8-3.25c-3.25-3.07-8.37-2.92-11.43,0.32c-0.22,0.23-0.43,0.48-0.62,0.74
		C110.01,27.75,112.29,28.55,114.59,28.35L114.59,28.35z"/>
	<path class="st0" d="M117.17,19.25c0.2,2.31,1.37,4.43,3.22,5.82c3.09-3.3,2.92-8.47-0.38-11.56c-0.22-0.2-0.44-0.39-0.68-0.57
		C117.75,14.65,116.96,16.94,117.17,19.25L117.17,19.25z"/>
	<path class="st0" d="M121.23,35.48c2.31,0.21,4.59-0.59,6.27-2.18c-2.65-3.59-7.71-4.35-11.3-1.7c-0.27,0.2-0.52,0.41-0.76,0.64
		C116.81,34.1,118.92,35.28,121.23,35.48z"/>
	<path class="st0" d="M125.33,26.98c-0.2,2.31,0.59,4.6,2.18,6.3c3.61-2.71,4.34-7.84,1.63-11.45c-0.18-0.24-0.37-0.46-0.57-0.68
		c-1.86,1.39-3.03,3.51-3.22,5.83L125.33,26.98z"/>
	<path class="st0" d="M126.52,43.68c2.24,0.6,4.62,0.22,6.55-1.06c-1.99-4-6.84-5.63-10.84-3.64c-0.29,0.15-0.58,0.31-0.85,0.49
		C122.41,41.55,124.29,43.08,126.52,43.68z"/>
	<path class="st0" d="M132.04,36.03c-0.6,2.24-0.22,4.64,1.05,6.58c4.02-2.05,5.62-6.97,3.58-10.99c-0.13-0.26-0.28-0.52-0.44-0.76
		C134.16,31.9,132.64,33.78,132.04,36.03L132.04,36.03z"/>
	<path class="st0" d="M130.34,52.7c2.09,0.99,4.51,1.02,6.63,0.1c-1.26-4.29-5.76-6.74-10.05-5.48c-0.31,0.09-0.62,0.2-0.92,0.33
		C126.67,49.88,128.24,51.72,130.34,52.7z"/>
	<path class="st0" d="M137.1,46.11c-0.98,2.11-1.02,4.53-0.1,6.67c4.31-1.31,6.74-5.87,5.43-10.17c-0.09-0.29-0.19-0.58-0.31-0.85
		C139.9,42.42,138.07,44.01,137.1,46.11z"/>
	<path class="st0" d="M132.56,62.23c1.89,1.33,4.27,1.79,6.52,1.25c-0.26-2.31-1.5-4.39-3.4-5.73c-1.89-1.33-4.26-1.79-6.51-1.25
		C129.43,58.82,130.66,60.9,132.56,62.23L132.56,62.23z"/>
	<path class="st0" d="M140.35,56.93c-1.33,1.91-1.79,4.29-1.25,6.55c2.3-0.27,4.38-1.52,5.69-3.42c1.33-1.9,1.79-4.29,1.25-6.55
		C143.74,53.78,141.67,55.03,140.35,56.93L140.35,56.93z"/>
	<path class="st0" d="M133.11,72.02c1.63,1.64,3.89,2.51,6.2,2.37c0.14-2.32-0.72-4.59-2.36-6.23c-1.63-1.65-3.89-2.51-6.2-2.37
		C130.61,68.1,131.47,70.37,133.11,72.02z"/>
	<path class="st0" d="M141.7,68.16c-1.64,1.64-2.5,3.91-2.36,6.23c4.49,0.24,8.32-3.2,8.56-7.69c0.02-0.3,0.02-0.61,0-0.91
		C145.58,65.65,143.32,66.52,141.7,68.16z"/>
	<path class="st0" d="M131.96,81.68c1.32,1.9,3.4,3.15,5.7,3.42c1.04-4.38-1.67-8.77-6.05-9.8c-0.3-0.07-0.59-0.12-0.9-0.16
		C130.18,77.39,130.63,79.77,131.96,81.68z"/>
	<path class="st0" d="M141.08,79.37c-1.9,1.34-3.13,3.42-3.4,5.73c4.36,1.02,8.73-1.68,9.75-6.05c0.07-0.3,0.13-0.61,0.16-0.92
		C145.35,77.58,142.98,78.04,141.08,79.37z"/>
	<path class="st0" d="M129.14,91c0.97,2.1,2.8,3.69,5.02,4.36c1.78-4.14-0.13-8.93-4.26-10.72c-0.28-0.12-0.56-0.22-0.85-0.31
		C128.13,86.46,128.16,88.89,129.14,91z"/>
	<path class="st0" d="M138.53,90.32c-2.1,0.98-3.68,2.82-4.34,5.04c2.12,0.92,4.54,0.89,6.63-0.1c2.1-0.99,3.68-2.83,4.34-5.05
		C143.05,89.29,140.63,89.33,138.53,90.32L138.53,90.32z"/>
	<path class="st0" d="M124.76,99.68c0.59,2.25,2.12,4.13,4.19,5.18c2.47-3.77,1.41-8.84-2.36-11.31c-0.25-0.16-0.51-0.31-0.77-0.45
		c-1.27,1.94-1.65,4.34-1.05,6.58L124.76,99.68z"/>
	<path class="st0" d="M134.12,100.65c-2.24,0.6-4.11,2.13-5.15,4.21c3.73,2.46,8.75,1.43,11.21-2.31c0.18-0.27,0.34-0.55,0.49-0.85
		C138.74,100.43,136.35,100.05,134.12,100.65z"/>
	<path class="st0" d="M118.93,107.47c0.19,2.31,1.37,4.43,3.22,5.83c3.09-3.3,2.91-8.47-0.39-11.56c-0.21-0.2-0.44-0.39-0.67-0.56
		c-1.59,1.69-2.38,3.98-2.18,6.3H118.93z"/>
	<path class="st0" d="M127.96,110.07c-2.31,0.2-4.42,1.38-5.8,3.25c3.24,3.07,8.35,2.94,11.42-0.3c0.23-0.24,0.44-0.49,0.64-0.76
		C132.55,110.66,130.27,109.86,127.96,110.07z"/>
	<path class="st0" d="M111.82,114.14c-0.2,2.31,0.59,4.61,2.18,6.3c3.61-2.71,4.35-7.84,1.64-11.45c-0.18-0.23-0.36-0.46-0.56-0.67
		c-1.86,1.39-3.03,3.51-3.22,5.82H111.82z"/>
	<path class="st0" d="M120.28,118.27c-2.31-0.2-4.59,0.59-6.26,2.19c2.66,3.59,7.72,4.35,11.31,1.69c0.26-0.19,0.51-0.4,0.75-0.63
		C124.7,119.66,122.59,118.47,120.28,118.27z"/>
	<path class="st0" d="M103.67,119.47c-0.6,2.24-0.22,4.64,1.05,6.58c4.02-2.04,5.63-6.95,3.59-10.97c-0.14-0.27-0.29-0.53-0.45-0.78
		C105.78,115.35,104.26,117.23,103.67,119.47L103.67,119.47z"/>
	<path class="st0" d="M111.28,125.02c-2.23-0.6-4.62-0.22-6.55,1.06c1.99,4,6.85,5.63,10.85,3.64c0.29-0.15,0.57-0.31,0.85-0.49
		C115.4,127.15,113.52,125.62,111.28,125.02z"/>
	<path class="st0" d="M94.71,123.32c-0.98,2.11-1.02,4.53-0.1,6.67c4.31-1.31,6.74-5.87,5.42-10.18c-0.09-0.29-0.19-0.57-0.31-0.85
		C97.5,119.63,95.68,121.22,94.71,123.32z"/>
	<path class="st0" d="M101.25,130.1c-2.09-0.99-4.51-1.02-6.63-0.1c1.27,4.29,5.78,6.74,10.07,5.47c0.31-0.09,0.61-0.2,0.9-0.33
		C104.93,132.92,103.35,131.08,101.25,130.1L101.25,130.1z"/>
	<path class="st0" d="M86.78,10.05c2.17,0.79,4.58,0.62,6.61-0.48c-1.63-4.16-6.32-6.21-10.48-4.58c-0.31,0.12-0.6,0.26-0.89,0.41
		C82.87,7.56,84.6,9.25,86.78,10.05z"/>
	<path class="st0" d="M65.84,148.52l-3.96-0.7c11.22-11.16,24.91-15.53,32.59-18.17c0.73-0.25,1.4-0.48,2.02-0.7
		c25.46-8.95,42.57-32.63,42.57-58.92c0-29.58-21.64-55.38-51.46-61.36l0.19-0.97c30.28,6.07,52.25,32.28,52.25,62.33
		c0,26.71-17.37,50.76-43.22,59.85c-0.62,0.22-1.3,0.45-2.04,0.7C87.17,133.19,76.92,137.52,65.84,148.52L65.84,148.52z"/>
</g>
<text transform="matrix(1 0 0 1 30.443 90.9747)" class="st0 st1 st2">ACP</text>
</svg>
