<svg id="Layer_1" data-name="Layer 1" xmlns="http://www.w3.org/2000/svg" viewBox="0 0 498.46 500.14"><defs><style>.cls-1,.cls-2{fill:#59c8dc;}.cls-2{font-size:153px;font-family:OpenSans-ExtraBold, Open Sans;font-weight:800;}</style></defs><title>MTA</title><g id="_1128814561072" data-name=" 1128814561072"><path class="cls-1" d="M170.26,54.81a27.78,27.78,0,0,1-14.81-17.22A27.62,27.62,0,0,1,192.9,55.14a27.53,27.53,0,0,1-22.64-.33Z" transform="translate(-0.6 0.14)"/><path class="cls-1" d="M172.55,22.62A27.65,27.65,0,0,1,155.43,37.5,27.83,27.83,0,0,1,172.89-.14a27.93,27.93,0,0,1-.34,22.76Z" transform="translate(-0.6 0.14)"/><path class="cls-1" d="M140.76,69.86a27.67,27.67,0,0,1-17.55-14.37,27.6,27.6,0,0,1,39.91,10.75A27.56,27.56,0,0,1,140.76,69.86Z" transform="translate(-0.6 0.14)"/><path class="cls-1" d="M137.46,37.77a27.75,27.75,0,0,1-14.29,17.64A27.88,27.88,0,0,1,133.86,15.3,27.84,27.84,0,0,1,137.46,37.77Z" transform="translate(-0.6 0.14)"/><path class="cls-1" d="M114.31,89.88a27.62,27.62,0,0,1-19.78-11.1,27.61,27.61,0,0,1,41.17,3.63,27.6,27.6,0,0,1-21.39,7.47Z" transform="translate(-0.6 0.14)"/><path class="cls-1" d="M105.5,58.85a27.74,27.74,0,0,1-11,19.87,27.91,27.91,0,0,1,3.6-41.38,27.85,27.85,0,0,1,7.43,21.51Z" transform="translate(-0.6 0.14)"/><path class="cls-1" d="M91.68,114.23a27.51,27.51,0,0,1-21.39-7.45,27.57,27.57,0,0,1,41.16-3.62,27.56,27.56,0,0,1-19.77,11.07Z" transform="translate(-0.6 0.14)"/><path class="cls-1" d="M77.64,85.22a27.76,27.76,0,0,1-7.42,21.5,27.93,27.93,0,0,1-3.6-41.38,27.77,27.77,0,0,1,11,19.88Z" transform="translate(-0.6 0.14)"/><path class="cls-1" d="M73.58,142.22a27.56,27.56,0,0,1-22.36-3.62,27.6,27.6,0,0,1,39.91-10.75A27.62,27.62,0,0,1,73.58,142.22Z" transform="translate(-0.6 0.14)"/><path class="cls-1" d="M54.75,116.09a27.87,27.87,0,0,1-3.61,22.46A27.89,27.89,0,0,1,40.45,98.43a27.77,27.77,0,0,1,14.3,17.66Z" transform="translate(-0.6 0.14)"/><path class="cls-1" d="M60.54,173a27.43,27.43,0,0,1-22.63.34,27.63,27.63,0,0,1,37.45-17.55A27.76,27.76,0,0,1,60.54,173Z" transform="translate(-0.6 0.14)"/><path class="cls-1" d="M37.49,150.5a28,28,0,0,1,.33,22.76,27.83,27.83,0,0,1-17.46-37.64A27.7,27.7,0,0,1,37.49,150.5Z" transform="translate(-0.6 0.14)"/><path class="cls-1" d="M53,205.52a27.54,27.54,0,0,1-22.23,4.28A27.66,27.66,0,0,1,64.59,186,27.78,27.78,0,0,1,53,205.52Z" transform="translate(-0.6 0.14)"/><path class="cls-1" d="M26.39,187.44a27.8,27.8,0,0,1,4.26,22.35,27.59,27.59,0,0,1-19.44-11.68,27.92,27.92,0,0,1-4.27-22.34A27.56,27.56,0,0,1,26.39,187.44Z" transform="translate(-0.6 0.14)"/><path class="cls-1" d="M51.12,238.91A27.59,27.59,0,0,1,30,247a27.81,27.81,0,0,1,8-21.27,27.5,27.5,0,0,1,21.16-8.1A27.84,27.84,0,0,1,51.12,238.91Z" transform="translate(-0.6 0.14)"/><path class="cls-1" d="M21.8,225.75A27.9,27.9,0,0,1,29.87,247,27.76,27.76,0,0,1,.6,219.44V219c0-.45,0-.92,0-1.37a27.49,27.49,0,0,1,21.16,8.1Z" transform="translate(-0.6 0.14)"/><path class="cls-1" d="M55,271.88a27.63,27.63,0,0,1-19.45,11.67,27.82,27.82,0,0,1,23.71-34A27.89,27.89,0,0,1,55,271.88Z" transform="translate(-0.6 0.14)"/><path class="cls-1" d="M23.88,264a27.72,27.72,0,0,1,11.61,19.54,27.49,27.49,0,0,1-22.23-4.29A27.82,27.82,0,0,1,1.65,259.75,27.43,27.43,0,0,1,23.88,264Z" transform="translate(-0.6 0.14)"/><path class="cls-1" d="M64.62,303.68a27.69,27.69,0,0,1-17.14,14.88,27.93,27.93,0,0,1,.34-22.76A27.65,27.65,0,0,1,65,280.92,28,28,0,0,1,64.62,303.68Z" transform="translate(-0.6 0.14)"/><path class="cls-1" d="M32.59,301.38a27.68,27.68,0,0,1,14.82,17.2A27.62,27.62,0,0,1,10,301a27.47,27.47,0,0,1,22.63.35Z" transform="translate(-0.6 0.14)"/><path class="cls-1" d="M79.6,333.31A27.71,27.71,0,0,1,65.29,351a28,28,0,0,1-3.59-22.47A27.66,27.66,0,0,1,76,310.85a27.82,27.82,0,0,1,3.61,22.46Z" transform="translate(-0.6 0.14)"/><path class="cls-1" d="M47.66,336.64A27.61,27.61,0,0,1,65.22,351a27.59,27.59,0,0,1-39.9-10.76A27.48,27.48,0,0,1,47.66,336.64Z" transform="translate(-0.6 0.14)"/><path class="cls-1" d="M99.51,359.9a27.8,27.8,0,0,1-11,19.88,27.91,27.91,0,0,1,3.59-41.37,27.82,27.82,0,0,1,7.43,21.49Z" transform="translate(-0.6 0.14)"/><path class="cls-1" d="M68.63,368.76a27.56,27.56,0,0,1,19.78,11.08,27.59,27.59,0,0,1-41.16-3.62,27.52,27.52,0,0,1,21.38-7.46Z" transform="translate(-0.6 0.14)"/><path class="cls-1" d="M123.76,382.65a27.91,27.91,0,0,1-7.44,21.5,27.91,27.91,0,0,1-3.59-41.37,27.88,27.88,0,0,1,11,19.87Z" transform="translate(-0.6 0.14)"/><path class="cls-1" d="M94.88,396.75a27.52,27.52,0,0,1,21.39,7.47,27.61,27.61,0,0,1-41.17,3.63,27.62,27.62,0,0,1,19.78-11.1Z" transform="translate(-0.6 0.14)"/><path class="cls-1" d="M151.59,400.85a27.89,27.89,0,0,1-3.6,22.47,27.9,27.9,0,0,1-10.71-40.11,27.71,27.71,0,0,1,14.31,17.64Z" transform="translate(-0.6 0.14)"/><path class="cls-1" d="M125.59,419.78a27.47,27.47,0,0,1,22.34,3.61A27.59,27.59,0,0,1,108,434.15,27.61,27.61,0,0,1,125.59,419.78Z" transform="translate(-0.6 0.14)"/><path class="cls-1" d="M182.17,414a27.86,27.86,0,0,1,.33,22.75,27.62,27.62,0,0,1-17.13-14.88,27.93,27.93,0,0,1-.33-22.76A27.75,27.75,0,0,1,182.17,414Z" transform="translate(-0.6 0.14)"/><path class="cls-1" d="M159.84,437.12a27.43,27.43,0,0,1,22.63-.33A27.66,27.66,0,0,1,145,454.35a27.71,27.71,0,0,1,14.82-17.23Z" transform="translate(-0.6 0.14)"/><path class="cls-1" d="M209.21,27.44a27.52,27.52,0,0,1-22.58-1.65,27.61,27.61,0,0,1,38.83-14.21A27.71,27.71,0,0,1,209.21,27.44Z" transform="translate(-0.6 0.14)"/><path class="cls-1" d="M280.65,500c-37.74-37.54-72.83-52.34-98.78-61.19q-3.76-1.26-6.93-2.38C86.7,405.39,27.41,323.31,27.41,232.17c0-102.54,75-192,178.31-212.7l.65,3.3C104.62,43.16,30.76,131.22,30.76,232.17c0,89.71,58.39,170.51,145.28,201.08q3.17,1.11,6.9,2.38c26.23,8.94,72.92,23.89,111.21,62Z" transform="translate(-0.6 0.14)"/><path class="cls-1" d="M329.4,54.81a27.78,27.78,0,0,0,14.81-17.22,27.62,27.62,0,0,0-37.45,17.55,27.53,27.53,0,0,0,22.64-.33Z" transform="translate(-0.6 0.14)"/><path class="cls-1" d="M327.11,22.62A27.65,27.65,0,0,0,344.24,37.5,27.85,27.85,0,0,0,326.78-.14,27.89,27.89,0,0,0,327.11,22.62Z" transform="translate(-0.6 0.14)"/><path class="cls-1" d="M358.9,69.86a27.67,27.67,0,0,0,17.55-14.37,27.58,27.58,0,0,0-39.9,10.75,27.53,27.53,0,0,0,22.35,3.62Z" transform="translate(-0.6 0.14)"/><path class="cls-1" d="M362.21,37.77A27.69,27.69,0,0,0,376.5,55.41,27.9,27.9,0,0,0,365.8,15.3,27.84,27.84,0,0,0,362.21,37.77Z" transform="translate(-0.6 0.14)"/><path class="cls-1" d="M385.35,89.88a27.62,27.62,0,0,0,19.78-11.1A27.6,27.6,0,0,0,364,82.41a27.56,27.56,0,0,0,21.38,7.47Z" transform="translate(-0.6 0.14)"/><path class="cls-1" d="M394.16,58.85a27.78,27.78,0,0,0,11,19.87,27.9,27.9,0,0,0-3.61-41.38,27.88,27.88,0,0,0-7.42,21.51Z" transform="translate(-0.6 0.14)"/><path class="cls-1" d="M408,114.23a27.5,27.5,0,0,0,21.39-7.45,27.57,27.57,0,0,0-41.16-3.62A27.58,27.58,0,0,0,408,114.23Z" transform="translate(-0.6 0.14)"/><path class="cls-1" d="M422,85.22a27.91,27.91,0,0,0,7.43,21.5,27.9,27.9,0,0,0,3.61-41.38,27.79,27.79,0,0,0-11,19.88Z" transform="translate(-0.6 0.14)"/><path class="cls-1" d="M426.08,142.22a27.56,27.56,0,0,0,22.36-3.62,27.6,27.6,0,0,0-39.91-10.75A27.62,27.62,0,0,0,426.08,142.22Z" transform="translate(-0.6 0.14)"/><path class="cls-1" d="M444.92,116.09a27.87,27.87,0,0,0,3.6,22.46,27.9,27.9,0,0,0,10.7-40.12,27.71,27.71,0,0,0-14.3,17.66Z" transform="translate(-0.6 0.14)"/><path class="cls-1" d="M439.12,173a27.43,27.43,0,0,0,22.63.34,27.61,27.61,0,0,0-37.43-17.55A27.66,27.66,0,0,0,439.12,173Z" transform="translate(-0.6 0.14)"/><path class="cls-1" d="M462.18,150.5a27.89,27.89,0,0,0-.34,22.76,27.83,27.83,0,0,0,17.46-37.64A27.65,27.65,0,0,0,462.18,150.5Z" transform="translate(-0.6 0.14)"/><path class="cls-1" d="M446.68,205.52a27.55,27.55,0,0,0,22.24,4.28,27.74,27.74,0,0,0-11.61-19.54A27.45,27.45,0,0,0,435.08,186a27.8,27.8,0,0,0,11.6,19.54Z" transform="translate(-0.6 0.14)"/><path class="cls-1" d="M473.27,187.44A27.84,27.84,0,0,0,469,209.79a27.53,27.53,0,0,0,19.43-11.68,27.84,27.84,0,0,0,4.27-22.34,27.56,27.56,0,0,0-19.44,11.67Z" transform="translate(-0.6 0.14)"/><path class="cls-1" d="M448.56,238.91A27.53,27.53,0,0,0,469.71,247a27.82,27.82,0,0,0-8.06-21.27,27.5,27.5,0,0,0-21.16-8.1A27.75,27.75,0,0,0,448.56,238.91Z" transform="translate(-0.6 0.14)"/><path class="cls-1" d="M477.86,225.75A27.83,27.83,0,0,0,469.79,247,27.77,27.77,0,0,0,499,217.65,27.49,27.49,0,0,0,477.86,225.75Z" transform="translate(-0.6 0.14)"/><path class="cls-1" d="M444.63,271.88a27.63,27.63,0,0,0,19.45,11.67,27.8,27.8,0,0,0-23.71-34A27.93,27.93,0,0,0,444.63,271.88Z" transform="translate(-0.6 0.14)"/><path class="cls-1" d="M475.77,264a27.78,27.78,0,0,0-11.6,19.54A27.69,27.69,0,0,0,498,259.75,27.46,27.46,0,0,0,475.77,264Z" transform="translate(-0.6 0.14)"/><path class="cls-1" d="M435,303.68a27.73,27.73,0,0,0,17.13,14.88,27.83,27.83,0,0,0-17.46-37.64A28,28,0,0,0,435,303.68Z" transform="translate(-0.6 0.14)"/><path class="cls-1" d="M467.07,301.38a27.67,27.67,0,0,0-14.81,17.2,27.47,27.47,0,0,0,22.63-.33A27.75,27.75,0,0,0,489.71,301a27.49,27.49,0,0,0-22.64.35Z" transform="translate(-0.6 0.14)"/><path class="cls-1" d="M420.06,333.31A27.72,27.72,0,0,0,434.36,351a27.87,27.87,0,0,0-10.7-40.11,27.93,27.93,0,0,0-3.6,22.46Z" transform="translate(-0.6 0.14)"/><path class="cls-1" d="M452,336.64A27.64,27.64,0,0,0,434.44,351a27.62,27.62,0,0,0,39.92-10.76A27.54,27.54,0,0,0,452,336.64Z" transform="translate(-0.6 0.14)"/><path class="cls-1" d="M400.15,359.9a27.78,27.78,0,0,0,11,19.88,27.91,27.91,0,0,0-3.61-41.37,27.85,27.85,0,0,0-7.43,21.49Z" transform="translate(-0.6 0.14)"/><path class="cls-1" d="M431,368.76a27.59,27.59,0,0,0-19.78,11.08,27.57,27.57,0,0,0,41.15-3.62A27.48,27.48,0,0,0,431,368.76Z" transform="translate(-0.6 0.14)"/><path class="cls-1" d="M375.91,382.65a27.86,27.86,0,0,0,7.43,21.5A27.91,27.91,0,0,0,387,362.78a27.75,27.75,0,0,0-11,19.87Z" transform="translate(-0.6 0.14)"/><path class="cls-1" d="M404.78,396.75a27.49,27.49,0,0,0-21.38,7.47,27.6,27.6,0,0,0,41.16,3.63,27.62,27.62,0,0,0-19.78-11.1Z" transform="translate(-0.6 0.14)"/><path class="cls-1" d="M348.08,400.85a27.92,27.92,0,0,0,3.59,22.47,27.86,27.86,0,0,0,10.7-40.11,27.69,27.69,0,0,0-14.29,17.64Z" transform="translate(-0.6 0.14)"/><path class="cls-1" d="M374.07,419.78a27.51,27.51,0,0,0-22.35,3.61,27.62,27.62,0,0,0,39.92,10.76A27.63,27.63,0,0,0,374.07,419.78Z" transform="translate(-0.6 0.14)"/><path class="cls-1" d="M317.5,414a27.79,27.79,0,0,0-.33,22.75,27.84,27.84,0,0,0,17.45-37.64A27.68,27.68,0,0,0,317.5,414Z" transform="translate(-0.6 0.14)"/><path class="cls-1" d="M339.83,437.12a27.45,27.45,0,0,0-22.64-.33,27.66,27.66,0,0,0,37.45,17.56,27.75,27.75,0,0,0-14.81-17.23Z" transform="translate(-0.6 0.14)"/><path class="cls-1" d="M290.45,27.44A27.48,27.48,0,0,0,313,25.79,27.59,27.59,0,0,0,274.2,11.58a27.68,27.68,0,0,0,16.25,15.86Z" transform="translate(-0.6 0.14)"/><path class="cls-1" d="M219,500l-13.51-2.39c38.29-38.09,85-53,111.22-62,2.48-.85,4.79-1.64,6.9-2.38C410.51,402.68,468.9,321.88,468.9,232.17c0-100.95-73.85-189-175.62-209.4l.66-3.3c103.32,20.7,178.31,110.16,178.31,212.7,0,91.14-59.29,173.22-147.51,204.26-2.13.75-4.44,1.54-6.95,2.38-26,8.85-61,23.65-98.78,61.19Z" transform="translate(-0.6 0.14)"/></g><text class="cls-2" transform="translate(75.35 300.91)">MTA</text></svg>