<?xml version="1.0" encoding="UTF-8"?>
<!DOCTYPE svg PUBLIC "-//W3C//DTD SVG 1.1//EN" "http://www.w3.org/Graphics/SVG/1.1/DTD/svg11.dtd">
<!-- Creator: CorelDRAW 2019 (64-Bit) -->
<svg xmlns="http://www.w3.org/2000/svg" xml:space="preserve" width="70px" height="60px" version="1.1" style="shape-rendering:geometricPrecision; text-rendering:geometricPrecision; image-rendering:optimizeQuality; fill-rule:evenodd; clip-rule:evenodd"
viewBox="0 0 100 100"
 xmlns:xlink="http://www.w3.org/1999/xlink"
 xmlns:xodm="http://www.corel.com/coreldraw/odm/2003">
 <defs>
  <style type="text/css">
   <![CDATA[
    .fil0 {fill:url(#id0);fill-rule:nonzero}
    .fil1 {fill:url(#id1);fill-rule:nonzero}
   ]]>
  </style>
  <linearGradient id="id0" gradientUnits="userSpaceOnUse" x1="55.18" y1="14.93" x2="93.08" y2="14.93">
   <stop offset="0" style="stop-opacity:1; stop-color:#317391"/>
   <stop offset="1" style="stop-opacity:1; stop-color:#786D9E"/>
  </linearGradient>
  <linearGradient id="id1" gradientUnits="userSpaceOnUse" xlink:href="#id0" x1="13.97" y1="54.49" x2="77.29" y2="54.49">
  </linearGradient>
 </defs>
 <g id="Layer_x0020_1">
  <metadata id="CorelCorpID_0Corel-Layer"/>
  <g id="_1717845091696">
   <path class="fil0" d="M64.56 0.93c-0.97,0.32 -2.63,2.02 -2.93,3.03 -0.14,0.45 -0.24,1.66 -0.24,2.71l0 1.88 -0.93 0.14c-2.04,0.3 -3.88,1.66 -4.81,3.56 -0.39,0.82 -0.47,1.31 -0.47,2.68 0,1.44 0.08,1.82 0.51,2.69 0.3,0.55 0.76,1.28 1.03,1.6 0.66,0.77 2.56,1.78 3.74,1.94l0.93 0.14 0 3.94 0 3.94 6.32 0 6.31 0 0.08 -2.16c0.06,-2.33 0.24,-2.79 1.43,-3.66 0.77,-0.57 2.63,-0.57 3.4,0 1.19,0.87 1.37,1.33 1.43,3.66l0.08 2.16 4.26 0c2.77,0 4.55,-0.08 5.08,-0.24 1.09,-0.31 2.74,-1.96 3.05,-3.05 0.34,-1.14 0.34,-20.76 0,-21.89 -0.12,-0.44 -0.61,-1.23 -1.09,-1.74 -1.46,-1.65 -0.99,-1.59 -14.59,-1.57 -8.07,0.02 -12.11,0.1 -12.59,0.24l0 0zm24.85 3.4l0.49 0.48 0 10.12 0 10.11 -0.49 0.48c-0.46,0.47 -0.58,0.49 -3.13,0.49l-2.67 0 -0.14 -0.95c-0.16,-1.17 -1.17,-3.07 -1.94,-3.72 -0.32,-0.28 -1.05,-0.73 -1.61,-1.03 -0.87,-0.43 -1.24,-0.51 -2.69,-0.51 -1.36,0 -1.86,0.08 -2.67,0.47 -1.9,0.93 -3.27,2.77 -3.56,4.81l-0.14 0.93 -3.15 0 -3.15 0 0 -3.94 0 -3.94 -2.16 -0.08c-1.82,-0.04 -2.25,-0.11 -2.71,-0.47 -1.05,-0.77 -1.36,-1.41 -1.36,-2.65 0,-1.25 0.31,-1.88 1.36,-2.66 0.46,-0.35 0.89,-0.43 2.71,-0.47l2.16 -0.08 0 -3.45c0,-3.4 0,-3.46 0.5,-3.94l0.47 -0.49 11.7 0 11.7 0 0.48 0.49 0 0z"/>
   <path class="fil1" d="M40.83 10.39c-7.25,0.85 -14.63,4.75 -19.35,10.24 -3.58,4.15 -5.86,8.79 -7.02,14.29 -0.6,2.75 -0.66,8.45 -0.12,11.19 0.85,4.39 2.83,9.06 5.2,12.39 1.85,2.55 3.92,4.61 7.96,7.9l3.78 3.07 0 2.19 0.02 2.22 -0.59 0.24c-1.35,0.55 -2.57,2.55 -2.57,4.16 0,1.68 1.2,3.54 2.73,4.23 0.73,0.34 0.79,0.42 0.61,0.85 -0.67,1.81 0.48,4.44 2.4,5.41 0.61,0.32 0.75,0.49 0.85,1.13 0.35,2.57 2.33,5.52 4.77,7.12 4.22,2.8 10.08,2.26 13.66,-1.2 1.64,-1.61 3.29,-4.69 3.29,-6.2 0,-0.32 0.21,-0.55 0.77,-0.83 1.94,-0.99 3.09,-3.62 2.41,-5.43 -0.18,-0.43 -0.12,-0.51 0.62,-0.85 1.52,-0.69 2.73,-2.55 2.73,-4.23 0,-1.61 -1.23,-3.61 -2.58,-4.16l-0.59 -0.24 0.02 -2.22 0 -2.19 3.11 -2.48c3.72,-2.97 7.05,-6.23 8.63,-8.47 3.42,-4.85 5.37,-10.67 5.6,-16.93l0.12 -2.91 -4.75 0 -4.77 0 -0.14 -0.95c-0.16,-1.17 -1.17,-3.07 -1.94,-3.72 -0.32,-0.28 -1.05,-0.73 -1.6,-1.03 -0.87,-0.43 -1.25,-0.51 -2.7,-0.51 -1.36,0 -1.86,0.08 -2.67,0.47 -1.9,0.93 -3.26,2.77 -3.56,4.81l-0.14 0.93 -3.15 0 -3.15 0 0 -3.94 0 -3.94 -2.15 -0.08c-2.34,-0.05 -2.79,-0.23 -3.67,-1.42 -0.57,-0.77 -0.57,-2.63 0,-3.41 0.88,-1.18 1.33,-1.36 3.67,-1.42l2.15 -0.08 0 -7.11 0 -7.1 -3.2 0.02c-1.78,0.01 -3.88,0.09 -4.69,0.19l0 0zm4.73 6.89l0 3.94 -0.93 0.14c-2.04,0.3 -3.88,1.66 -4.81,3.56 -0.4,0.82 -0.48,1.31 -0.48,2.68 0,1.44 0.08,1.82 0.52,2.69 0.29,0.55 0.75,1.29 1.02,1.6 0.66,0.77 2.56,1.78 3.75,1.94l0.93 0.14 0 2.36 0 2.35 -3.15 0 -3.15 0 -0.14 -0.95c-0.16,-1.17 -1.16,-3.07 -1.94,-3.72 -0.31,-0.28 -1.05,-0.73 -1.6,-1.03 -0.87,-0.43 -1.25,-0.51 -2.69,-0.51 -1.37,0 -1.86,0.08 -2.68,0.47 -1.9,0.93 -3.26,2.77 -3.56,4.81l-0.14 0.93 -4.69 0 -4.69 0 0.16 -1.44c0.33,-2.71 1.38,-6.16 2.69,-8.75 2.49,-5.01 7.24,-9.74 12.21,-12.24 3.63,-1.8 7.78,-2.83 11.74,-2.89l1.63 -0.02 0 3.94 0 0zm-10.93 18.77c1.15,0.85 1.33,1.31 1.38,3.64l0.08 2.16 4.74 0 4.73 0 0 3.15 0 3.15 -0.93 0.13c-2.04,0.3 -3.88,1.67 -4.81,3.57 -0.38,0.81 -0.48,1.3 -0.48,2.67 -0.02,1.54 0.04,1.78 0.65,2.93 0.38,0.69 0.95,1.47 1.27,1.74 0.89,0.75 2.32,1.41 3.37,1.57l0.93 0.13 0 6.32 0 6.32 -5.55 0 -5.54 0 0 -2.78 0 -2.75 -4.12 -3.36c-2.25,-1.85 -4.89,-4.16 -5.82,-5.15 -4.21,-4.42 -6.77,-10.06 -7.38,-16.31l-0.14 -1.33 6.35 0 6.36 0 0 -1.86c0,-2.55 0.43,-3.54 1.88,-4.2 0.79,-0.37 2.36,-0.23 3.03,0.26l0 0zm28.51 0c1.14,0.85 1.32,1.31 1.38,3.64l0.08 2.16 4.75 0 4.75 0 -0.13 1.33c-0.62,6.21 -3.21,11.91 -7.39,16.33 -0.95,0.99 -3.56,3.31 -5.82,5.15l-4.12 3.36 0 2.75 0 2.76 -3.96 0 -3.96 0 0 -7.9 0 -7.9 -2.15 -0.08c-2.34,-0.06 -2.79,-0.24 -3.67,-1.43 -0.57,-0.77 -0.57,-2.63 0,-3.4 0.88,-1.19 1.33,-1.37 3.67,-1.43l2.15 -0.08 0 -4.73 0 -4.73 4.76 0 4.75 0 0 -1.86c0,-2.55 0.43,-3.54 1.88,-4.2 0.79,-0.37 2.35,-0.23 3.03,0.26zm-3.82 41.14c0.65,0.63 0.65,1.54 0,2.17l-0.48 0.5 -13.28 0 -13.29 0 -0.47 -0.5c-0.32,-0.29 -0.5,-0.71 -0.5,-1.08 0,-0.38 0.18,-0.8 0.5,-1.09l0.47 -0.5 13.29 0 13.28 0 0.48 0.5zm-3.17 6.33c0.32,0.3 0.49,0.72 0.49,1.09 0,0.38 -0.17,0.79 -0.49,1.09l-0.48 0.5 -10.11 0 -10.12 0 -0.47 -0.5c-0.32,-0.3 -0.5,-0.71 -0.5,-1.09 0,-0.37 0.18,-0.79 0.5,-1.09l0.47 -0.49 10.12 0 10.11 0 0.48 0.49zm-2.87 6.12c0,0.14 -0.32,0.89 -0.7,1.64 -0.85,1.71 -2.03,2.85 -3.82,3.68 -1.2,0.58 -1.5,0.64 -3.2,0.64 -1.71,0 -2,-0.06 -3.17,-0.62 -1.84,-0.87 -3.01,-1.99 -3.86,-3.68 -0.38,-0.77 -0.69,-1.52 -0.69,-1.66 0,-0.24 1.32,-0.28 7.72,-0.28 6.39,0 7.72,0.04 7.72,0.28l0 0z"/>
  </g>
 </g>
</svg>
