<?xml version="1.0" encoding="UTF-8"?>
<!DOCTYPE svg PUBLIC "-//W3C//DTD SVG 1.1//EN" "http://www.w3.org/Graphics/SVG/1.1/DTD/svg11.dtd">
<!-- Creator: CorelDRAW 2019 (64-Bit) -->
<svg xmlns="http://www.w3.org/2000/svg" xml:space="preserve" width="70px" height="70px" version="1.1" style="shape-rendering:geometricPrecision; text-rendering:geometricPrecision; image-rendering:optimizeQuality; fill-rule:evenodd; clip-rule:evenodd"
viewBox="0 0 70 70"
 xmlns:xlink="http://www.w3.org/1999/xlink"
 xmlns:xodm="http://www.corel.com/coreldraw/odm/2003">
 <defs>
  <style type="text/css">
   <![CDATA[
    .fil0 {fill:url(#id0);fill-rule:nonzero}
    .fil7 {fill:url(#id1);fill-rule:nonzero}
    .fil4 {fill:url(#id2);fill-rule:nonzero}
    .fil8 {fill:url(#id3);fill-rule:nonzero}
    .fil1 {fill:url(#id4);fill-rule:nonzero}
    .fil3 {fill:url(#id5);fill-rule:nonzero}
    .fil2 {fill:url(#id6);fill-rule:nonzero}
    .fil5 {fill:url(#id7);fill-rule:nonzero}
    .fil6 {fill:url(#id8);fill-rule:nonzero}
   ]]>
  </style>
  <linearGradient id="id0" gradientUnits="userSpaceOnUse" x1="3.22" y1="35.8" x2="66.78" y2="35.8">
   <stop offset="0" style="stop-opacity:1; stop-color:#317391"/>
   <stop offset="1" style="stop-opacity:1; stop-color:#786D9E"/>
  </linearGradient>
  <linearGradient id="id1" gradientUnits="userSpaceOnUse" xlink:href="#id0" x1="47.74" y1="47.38" x2="55.16" y2="47.38">
  </linearGradient>
  <linearGradient id="id2" gradientUnits="userSpaceOnUse" xlink:href="#id0" x1="22.54" y1="34.9" x2="56.22" y2="34.9">
  </linearGradient>
  <linearGradient id="id3" gradientUnits="userSpaceOnUse" xlink:href="#id0" x1="13.52" y1="45.48" x2="41.57" y2="45.48">
  </linearGradient>
  <linearGradient id="id4" gradientUnits="userSpaceOnUse" xlink:href="#id0" x1="6.71" y1="35.82" x2="63.25" y2="35.82">
  </linearGradient>
  <linearGradient id="id5" gradientUnits="userSpaceOnUse" xlink:href="#id0" x1="13.53" y1="34.9" x2="19.98" y2="34.9">
  </linearGradient>
  <linearGradient id="id6" gradientUnits="userSpaceOnUse" xlink:href="#id0" x1="30.16" y1="26.04" x2="41.15" y2="26.04">
  </linearGradient>
  <linearGradient id="id7" gradientUnits="userSpaceOnUse" xlink:href="#id0" x1="13.51" y1="40.17" x2="42.72" y2="40.17">
  </linearGradient>
  <linearGradient id="id8" gradientUnits="userSpaceOnUse" xlink:href="#id0" x1="43.7" y1="50.07" x2="59.23" y2="50.07">
  </linearGradient>
 </defs>
 <g id="Layer_x0020_1">
  <metadata id="CorelCorpID_0Corel-Layer"/>
  <g id="_1717852677472">
   <path class="fil0" d="M4.19 13.28c-0.29,0.15 -0.57,0.43 -0.72,0.73 -0.25,0.49 -0.25,0.7 -0.25,21.81 0,20.07 0.01,21.36 0.22,21.77 0.12,0.23 0.4,0.56 0.64,0.71l0.42 0.28 19.51 0c18.43,0 19.53,-0.01 19.72,-0.22 0.36,-0.4 0.38,-0.83 0.05,-1.22l-0.31 -0.36 -19.19 -0.04 -19.2 -0.02 0 -20.92 0 -20.92 29.92 0 29.92 0 0 20.91 0 20.92 -2.73 0.03c-2.62,0.04 -2.73,0.05 -2.99,0.31 -0.38,0.38 -0.38,1 0,1.31 0.26,0.2 0.56,0.22 3.3,0.22 2.92,0 3.02,-0.01 3.43,-0.28 0.23,-0.15 0.52,-0.48 0.63,-0.71 0.21,-0.41 0.22,-1.7 0.22,-21.77 0,-21.13 0,-21.32 -0.25,-21.81 -0.16,-0.32 -0.42,-0.58 -0.74,-0.74 -0.48,-0.25 -0.66,-0.25 -30.81,-0.25 -29.96,0.01 -30.33,0.01 -30.79,0.26l0 0z"/>
   <path class="fil1" d="M8.06 16.62c-0.67,0.16 -1.2,0.83 -1.3,1.63 -0.04,0.37 -0.06,8.51 -0.04,18.11 0.04,17.18 0.04,17.44 0.29,17.85 0.13,0.24 0.46,0.52 0.7,0.66 0.45,0.22 1,0.23 18.08,0.23 17.03,0 17.64,-0.01 17.91,-0.23 0.4,-0.32 0.4,-1.07 0,-1.39 -0.27,-0.23 -0.87,-0.24 -17.71,-0.24l-17.43 0 0.02 -17.42 0.04 -17.4 26.38 0 26.38 0 0.04 17.4 0.02 17.42 -0.95 0c-0.6,0.01 -1.06,0.08 -1.18,0.18 -0.54,0.39 -0.47,1.28 0.1,1.55 0.17,0.07 0.78,0.13 1.36,0.13 1.25,0 1.84,-0.23 2.23,-0.89 0.24,-0.41 0.24,-0.63 0.24,-18.44 0,-18 0,-18.02 -0.26,-18.36 -0.13,-0.18 -0.41,-0.46 -0.59,-0.59l-0.34 -0.26 -26.78 -0.03c-14.72,0 -26.97,0.04 -27.21,0.09z"/>
   <path class="fil2" d="M35.16 20.9c-0.32,0.14 -0.52,0.4 -1.02,1.41l-0.62 1.24 -1.03 0.13c-1.59,0.23 -1.69,0.25 -2.02,0.66 -0.58,0.7 -0.37,1.28 0.88,2.46l0.83 0.78 -0.21 1.33c-0.22,1.45 -0.17,1.84 0.33,2.15 0.64,0.41 0.8,0.38 2.1,-0.29l1.26 -0.64 1.27 0.64c1.2,0.62 1.29,0.65 1.71,0.51 0.86,-0.29 0.99,-0.87 0.64,-2.71l-0.18 -0.96 0.98 -0.96c0.53,-0.52 1,-1.1 1.05,-1.27 0.12,-0.44 -0.21,-1.14 -0.63,-1.35 -0.18,-0.1 -0.88,-0.25 -1.54,-0.33l-1.19 -0.15 -0.58 -1.24c-0.5,-1.06 -0.65,-1.26 -1.01,-1.42 -0.51,-0.21 -0.52,-0.21 -1.02,0.01l0 0zm1.54 4.27c0.13,0.06 0.51,0.15 0.85,0.2 1.01,0.14 1.01,0.14 0.32,0.87 -0.68,0.72 -0.76,1.03 -0.51,2.11 0.06,0.27 0.09,0.51 0.06,0.53 -0.01,0.03 -0.36,-0.12 -0.74,-0.33 -0.9,-0.47 -1.13,-0.48 -2.05,-0.01 -0.41,0.21 -0.75,0.32 -0.75,0.26 0,-0.08 0.07,-0.41 0.14,-0.76 0.19,-0.84 0.09,-1.15 -0.6,-1.87 -0.6,-0.66 -0.6,-0.66 0.36,-0.8 0.76,-0.1 1.18,-0.45 1.56,-1.29l0.31 -0.7 0.42 0.84c0.24,0.46 0.52,0.88 0.63,0.95l0 0z"/>
   <path class="fil3" d="M13.77 34.25c-0.33,0.33 -0.32,1 0.01,1.31 0.24,0.21 0.49,0.24 2.97,0.24 2.48,0 2.73,-0.03 2.97,-0.24 0.33,-0.31 0.35,-0.98 0.01,-1.31 -0.23,-0.24 -0.41,-0.25 -2.98,-0.25 -2.57,0 -2.74,0.01 -2.98,0.25z"/>
   <path class="fil4" d="M22.82 34.22c-0.37,0.31 -0.37,0.93 0,1.31l0.28 0.27 16.32 0 16.34 0 0.23 -0.3c0.33,-0.4 0.3,-0.91 -0.05,-1.23l-0.28 -0.27 -16.28 0c-15.63,0 -16.28,0.01 -16.56,0.22z"/>
   <path class="fil5" d="M14.21 39.3c-0.69,0.17 -0.93,1.03 -0.44,1.53 0.25,0.25 0.41,0.25 14.38,0.25 13.73,0 14.14,-0.02 14.35,-0.24 0.31,-0.33 0.3,-0.97 -0.04,-1.29l-0.27 -0.27 -13.87 -0.02c-7.62,-0.01 -13.98,0 -14.11,0.04l0 0z"/>
   <path class="fil6" d="M50.85 39.4c-0.57,0.15 -0.75,0.26 -1.29,0.78 -0.27,0.28 -0.37,0.29 -1.03,0.21 -1.44,-0.16 -2.57,0.71 -2.8,2.18 -0.08,0.42 -0.16,0.57 -0.46,0.73 -0.62,0.33 -1.23,0.92 -1.4,1.34 -0.25,0.58 -0.22,1.45 0.08,2.15l0.26 0.59 -0.26 0.59c-0.53,1.21 -0.2,2.52 0.83,3.17 0.31,0.19 0.61,0.38 0.66,0.39 0.06,0.02 0.2,0.37 0.3,0.78 0.11,0.4 0.34,0.92 0.5,1.13 0.31,0.41 0.31,0.41 0.31,3.39 0,3.22 0.05,3.5 0.63,3.81 0.7,0.35 0.99,0.24 2.47,-0.92 0.76,-0.59 1.49,-1.15 1.61,-1.24 0.2,-0.14 0.36,-0.05 1.48,0.85 1.98,1.57 2.25,1.68 2.99,1.3 0.65,-0.34 0.69,-0.5 0.72,-3.82 0.04,-3.02 0.05,-3.1 0.35,-3.53 0.16,-0.24 0.32,-0.63 0.37,-0.89 0.12,-0.71 0.13,-0.72 0.85,-1.18 1.18,-0.76 1.51,-1.94 0.94,-3.28l-0.27 -0.62 0.27 -0.51c0.32,-0.65 0.36,-1.68 0.06,-2.25 -0.22,-0.43 -0.9,-1.12 -1.11,-1.12 -0.31,-0.01 -0.6,-0.41 -0.7,-0.95 -0.26,-1.39 -1.43,-2.25 -2.82,-2.09 -0.66,0.08 -0.73,0.07 -1.02,-0.25 -0.64,-0.69 -1.6,-0.98 -2.52,-0.74l0 0zm1.49 2.3c0.55,0.48 1.18,0.67 1.98,0.57 0.79,-0.09 0.99,0.06 1.12,0.85 0.09,0.71 0.64,1.48 1.29,1.8 0.69,0.36 0.78,0.59 0.47,1.26 -0.34,0.71 -0.35,1.62 -0.03,2.34 0.14,0.32 0.23,0.65 0.2,0.76 -0.01,0.11 -0.3,0.35 -0.62,0.52 -0.68,0.39 -1.09,0.95 -1.33,1.8 -0.23,0.92 -0.25,0.93 -1.01,0.85 -0.91,-0.11 -1.53,0.08 -2.21,0.67 -0.33,0.27 -0.65,0.49 -0.74,0.49 -0.08,0 -0.38,-0.19 -0.67,-0.43 -0.75,-0.66 -1.29,-0.84 -2.13,-0.74 -0.86,0.09 -1.05,-0.04 -1.17,-0.86 -0.11,-0.72 -0.51,-1.29 -1.18,-1.68 -0.73,-0.43 -0.86,-0.64 -0.64,-1.15 0.38,-0.93 0.43,-1.52 0.21,-2.16 -0.41,-1.13 -0.4,-1.27 0.06,-1.5 0.72,-0.39 1.31,-1.06 1.48,-1.66 0.29,-1.14 0.34,-1.17 1.25,-1.14 0.94,0.05 1.43,-0.11 2.2,-0.75 0.61,-0.51 0.7,-0.5 1.47,0.16l0 0zm-2.62 13.02c1.08,0.96 2.38,0.94 3.46,0 0.54,-0.48 0.74,-0.56 1.11,-0.41 0.18,0.06 0.2,0.36 0.2,2.05l0 1.96 -1.26 -0.98c-1.78,-1.38 -1.84,-1.38 -4.08,0.41l-0.74 0.59 0 -1.98c0,-1.79 0.02,-1.99 0.22,-2.04 0.44,-0.12 0.56,-0.07 1.09,0.4l0 0z"/>
   <path class="fil7" d="M50.04 43.93c-0.91,0.41 -1.47,0.95 -1.89,1.81 -0.93,1.89 -0.23,3.99 1.69,4.99 0.85,0.45 2.32,0.48 3.17,0.05 1.36,-0.65 2.15,-1.94 2.15,-3.43 0,-1.49 -0.69,-2.61 -2.06,-3.29 -0.63,-0.32 -0.9,-0.38 -1.64,-0.38 -0.61,0 -1.05,0.09 -1.42,0.25l0 0zm2.48 1.9c0.54,0.36 0.92,1.24 0.81,1.88 -0.12,0.59 -0.74,1.27 -1.32,1.45 -1.71,0.51 -3.09,-1.42 -2.06,-2.88 0.53,-0.77 1.77,-0.98 2.57,-0.45l0 0z"/>
   <path class="fil8" d="M13.86 44.81c-0.44,0.34 -0.46,0.98 -0.06,1.36 0.27,0.24 0.36,0.24 13.72,0.24l13.45 0 0.3 -0.31c0.37,-0.36 0.4,-0.79 0.07,-1.19l-0.23 -0.3 -13.47 -0.03 -13.46 -0.03 -0.32 0.26z"/>
  </g>
 </g>
</svg>
