<?xml version="1.0" encoding="UTF-8"?>
<!DOCTYPE svg PUBLIC "-//W3C//DTD SVG 1.1//EN" "http://www.w3.org/Graphics/SVG/1.1/DTD/svg11.dtd">
<!-- Creator: CorelDRAW 2019 (64-Bit) -->
<svg xmlns="http://www.w3.org/2000/svg" xml:space="preserve" width="100px" height="100px" version="1.1" style="shape-rendering:geometricPrecision; text-rendering:geometricPrecision; image-rendering:optimizeQuality; fill-rule:evenodd; clip-rule:evenodd"
viewBox="0 0 100 100"
 xmlns:xlink="http://www.w3.org/1999/xlink"
 xmlns:xodm="http://www.corel.com/coreldraw/odm/2003">
 <defs>
  <style type="text/css">
   <![CDATA[
    .fil9 {fill:url(#id0);fill-rule:nonzero}
    .fil5 {fill:url(#id1);fill-rule:nonzero}
    .fil7 {fill:url(#id2);fill-rule:nonzero}
    .fil0 {fill:url(#id3);fill-rule:nonzero}
    .fil1 {fill:url(#id4);fill-rule:nonzero}
    .fil8 {fill:url(#id5);fill-rule:nonzero}
    .fil6 {fill:url(#id6);fill-rule:nonzero}
    .fil2 {fill:url(#id7);fill-rule:nonzero}
    .fil4 {fill:url(#id8);fill-rule:nonzero}
    .fil3 {fill:url(#id9);fill-rule:nonzero}
   ]]>
  </style>
  <linearGradient id="id0" gradientUnits="userSpaceOnUse" x1="48.56" y1="48.92" x2="54.59" y2="48.92">
   <stop offset="0" style="stop-opacity:1; stop-color:#317391"/>
   <stop offset="1" style="stop-opacity:1; stop-color:#786D9E"/>
  </linearGradient>
  <linearGradient id="id1" gradientUnits="userSpaceOnUse" xlink:href="#id0" x1="12.36" y1="48.92" x2="18.39" y2="48.92">
  </linearGradient>
  <linearGradient id="id2" gradientUnits="userSpaceOnUse" xlink:href="#id0" x1="30.46" y1="48.92" x2="36.49" y2="48.92">
  </linearGradient>
  <linearGradient id="id3" gradientUnits="userSpaceOnUse" xlink:href="#id0" x1="2.05" y1="49.82" x2="96.84" y2="49.82">
  </linearGradient>
  <linearGradient id="id4" gradientUnits="userSpaceOnUse" xlink:href="#id0" x1="62.9" y1="63.18" x2="78.25" y2="63.18">
  </linearGradient>
  <linearGradient id="id5" gradientUnits="userSpaceOnUse" xlink:href="#id0" x1="39.51" y1="48.92" x2="45.54" y2="48.92">
  </linearGradient>
  <linearGradient id="id6" gradientUnits="userSpaceOnUse" xlink:href="#id0" x1="21.41" y1="48.92" x2="27.44" y2="48.92">
  </linearGradient>
  <linearGradient id="id7" gradientUnits="userSpaceOnUse" xlink:href="#id0" x1="60.66" y1="30.81" x2="66.63" y2="30.81">
  </linearGradient>
  <linearGradient id="id8" gradientUnits="userSpaceOnUse" xlink:href="#id0" x1="64.43" y1="37.81" x2="74.91" y2="37.81">
  </linearGradient>
  <linearGradient id="id9" gradientUnits="userSpaceOnUse" xlink:href="#id0" x1="72.71" y1="30.82" x2="78.7" y2="30.82">
  </linearGradient>
 </defs>
 <g id="Layer_x0020_1">
  <metadata id="CorelCorpID_0Corel-Layer"/>
  <path class="fil0" d="M61.19 2.66c-2.8,0.48 -5.32,1.82 -7.52,4.01 -1.77,1.78 -2.82,3.45 -3.59,5.8 -0.45,1.36 -0.51,1.92 -0.59,5.51l-0.08 3.99 0.5 0.49c0.43,0.43 0.69,0.51 1.65,0.51l1.15 0 -1.38 0.75c-3.69,2.01 -4.56,6.49 -1.9,9.73 0.57,0.69 2.67,1.96 3.24,1.96 0.18,0 0.39,0.13 0.47,0.29 0.16,0.26 0.34,0.24 1.52,-0.1 0.75,-0.22 1.4,-0.41 1.44,-0.47 0.04,-0.04 0,-0.59 -0.12,-1.23 -0.11,-0.63 -0.21,-3.33 -0.21,-6.01l0 -4.88 0.75 -0.12c0.39,-0.06 1.26,-0.16 1.91,-0.22 3.83,-0.37 8.63,-1.77 12.51,-3.65 1.35,-0.65 2.47,-1.16 2.49,-1.14 0.02,0.04 0.34,0.73 0.73,1.54 0.79,1.68 2.25,3.41 3.71,4.34 0.53,0.34 1.8,0.91 2.8,1.28l1.84 0.66 -0.02 4.2c0,4.03 -0.04,4.3 -0.53,5.8 -0.71,2.13 -1.76,3.85 -3.32,5.41 -1.56,1.56 -3.28,2.6 -5.41,3.31 -1.34,0.44 -1.93,0.54 -3.94,0.54 -2.71,0.02 -4.39,-0.38 -6.58,-1.58 -0.69,-0.38 -1.32,-0.63 -1.38,-0.59 -0.35,0.21 -1.64,2.28 -1.54,2.46 0.08,0.1 0.61,0.48 1.21,0.81 0.59,0.34 1.08,0.75 1.08,0.91 0,0.16 -0.21,0.51 -0.49,0.77 -0.4,0.41 -0.67,0.49 -1.56,0.49l-1.07 0 -0.07 -3.21c-0.08,-3 -0.1,-3.26 -0.6,-4.21 -0.77,-1.48 -1.38,-2.11 -2.76,-2.86l-1.24 -0.67 -23.78 0 -23.79 0 -1.24 0.67c-1.38,0.75 -1.97,1.36 -2.76,2.86 -0.5,0.95 -0.53,1.19 -0.59,4.21l-0.08 3.21 1.58 0 1.59 0 0.06 -2.94c0.06,-3.22 0.16,-3.51 1.42,-4.44 0.54,-0.41 0.66,-0.41 23.53,-0.47 25.44,-0.06 23.82,-0.14 24.87,1.26l0.57 0.73 0 15.36c0,15.19 0,15.35 -0.42,15.88 -0.21,0.3 -0.65,0.73 -0.94,0.95 -0.54,0.39 -0.81,0.41 -9.81,0.47 -5.49,0.02 -9.26,-0.02 -9.26,-0.13 0,-0.1 0.36,-1.84 0.79,-3.87 0.44,-2.04 0.79,-3.87 0.79,-4.09 0,-0.2 -0.22,-0.59 -0.49,-0.85l-0.48 -0.49 -6.09 0c-4.86,0 -6.16,0.06 -6.46,0.28 -0.2,0.13 -1.22,2.25 -2.27,4.67l-1.89 4.42 -5.92 0 -5.94 0 -0.73 -0.57c-1.33,-1 -1.31,-0.73 -1.31,-12.45l0 -10.56 -1.58 0 -1.59 0 0.06 11.09 0.06 11.11 0.53 1.01c0.79,1.5 1.38,2.11 2.76,2.86l1.24 0.67 5.49 0.06c4.82,0.06 5.49,0.1 5.39,0.38 -0.06,0.15 -0.97,2.29 -2.01,4.71l-1.9 4.42 -5.33 0 -5.31 0 -0.47 0.5c-0.49,0.47 -0.49,0.51 -0.49,4.24 0,3.73 0,3.77 0.49,4.24l0.47 0.5 46.4 0 46.4 0 0.47 -0.5c0.5,-0.47 0.5,-0.51 0.5,-4.24 0,-3.73 0,-3.77 -0.5,-4.24 -0.43,-0.44 -0.63,-0.5 -2.07,-0.5l-1.6 0 1.09 -1.26c1.99,-2.35 3.06,-5.29 3.08,-8.37l0 -1.42 -1.58 0 -1.58 0 0 1.17c0,4.79 -3.2,8.84 -7.68,9.69 -0.65,0.11 -6.04,0.19 -14.05,0.19l-13.01 0 0 -1.89c0,-1.05 0.1,-2.27 0.24,-2.72 0.32,-1.09 1.96,-2.73 3.04,-3.04 0.59,-0.18 3.73,-0.24 11.7,-0.24l10.9 0 0.47 -0.49 0.49 -0.48 0 -5.84 0 -5.82 3.95 0 3.95 0 0 3.16 0 3.15 1.6 0 1.58 0 -0.06 -8.23 -0.06 -8.25 -0.51 -1.3c-0.72,-1.85 -1.39,-2.92 -2.63,-4.18 -1.24,-1.24 -2.37,-1.98 -4.24,-2.67 -1.23,-0.47 -1.62,-0.51 -6,-0.61 -4.66,-0.12 -4.72,-0.12 -5.09,-0.59 -0.22,-0.28 -0.38,-0.75 -0.38,-1.18 0.02,-0.64 0.14,-0.79 1.13,-1.5 2.52,-1.82 4.75,-4.82 5.8,-7.84 0.49,-1.46 0.61,-1.62 1.22,-1.83 1.24,-0.44 2.51,-1.31 3.12,-2.13 1.01,-1.41 1.22,-2.08 1.24,-3.89 0,-1.39 -0.08,-1.86 -0.47,-2.67 -0.63,-1.28 -1.84,-2.48 -3.1,-3.06l-1.01 -0.45 -0.07 -4.36c-0.08,-4.07 -0.12,-4.44 -0.58,-5.67 -0.71,-1.85 -1.42,-3 -2.64,-4.22 -1.6,-1.6 -3.61,-2.64 -5.9,-3.08 -0.75,-0.14 -1.11,-0.33 -1.54,-0.85 -0.75,-0.9 -2.29,-1.87 -3.55,-2.21 -1.19,-0.31 -8.59,-0.35 -10.33,-0.06l0 0zm10.07 3.32c0.43,0.2 1.03,0.63 1.34,0.95l0.53 0.59 -0.04 3.41 -0.05 3.44 -2.57 1.34c-4.72,2.45 -9.81,3.81 -15.14,4.04l-2.72 0.12 0 -0.9 0 -0.89 0.85 -0.14c4.66,-0.69 9.27,-1.95 12.57,-3.43 2.23,-0.99 4.93,-2.67 4.93,-3.04 0,-0.26 -1.77,-2.12 -2.03,-2.12 -0.1,0 -0.55,0.28 -1.03,0.6 -2.34,1.61 -7.08,3.37 -11.36,4.22 -4.21,0.83 -3.81,0.81 -3.65,0.06 0.05,-0.34 0.25,-1.01 0.43,-1.46l0.32 -0.81 1.59 -0.14c3.14,-0.28 7.44,-1.26 7.44,-1.7 0,-0.09 -0.29,-0.75 -0.63,-1.46 -0.47,-0.94 -0.73,-1.26 -0.94,-1.16 -0.52,0.2 -3.02,0.81 -3.95,0.95l-0.87 0.13 0.45 -0.49c0.79,-0.85 3.48,-2.07 5.15,-2.35 0.28,-0.04 2.31,-0.1 4.54,-0.1 3.56,-0.02 4.15,0.02 4.84,0.34l0 0zm6.95 3.67c1.69,0.85 2.84,2.03 3.67,3.81 0.63,1.32 0.63,1.32 0.69,5.11l0.08 3.79 -1.19 -0.39c-2.35,-0.8 -4.1,-2.51 -4.77,-4.7 -0.34,-1.05 -0.4,-1.8 -0.4,-4.78 0,-2.86 0.06,-3.53 0.28,-3.53 0.14,0 0.89,0.32 1.64,0.69l0 0zm-25.6 19.68l-0.02 2.82 -0.67 -0.73c-1.15,-1.23 -1.17,-2.96 -0.06,-4.21 0.31,-0.37 0.63,-0.69 0.67,-0.69 0.04,0 0.08,1.27 0.08,2.81l0 0zm34.65 -0.75c0.2,1.1 -0.07,2.05 -0.8,2.84l-0.68 0.73 0 -2.86 0 -2.86 0.68 0.72c0.37,0.4 0.73,1.03 0.8,1.43zm-12.15 19.97c0,0.14 0.39,0.67 0.87,1.2l0.88 0.99 -0.84 0.97c-1.54,1.73 -4.01,2.84 -6.36,2.84 -2.17,0 -4.89,-1.3 -6.26,-3l-0.57 -0.71 0.81 -0.73c0.44,-0.4 0.95,-1.09 1.15,-1.5l0.33 -0.79 1.11 0.16c1.93,0.27 5.68,0.13 7.1,-0.28l1.28 -0.38 0.24 0.5c0.14,0.29 0.24,0.61 0.26,0.73l0 0zm-14.92 3.93c2.03,3.05 5.21,4.91 8.86,5.17 4.04,0.25 7.52,-1.46 10.34,-5.13l0.91 -1.17 3.67 0.08c3.65,0.06 3.67,0.06 4.99,0.69 1.84,0.87 2.98,1.97 3.87,3.77l0.73 1.5 0.08 3.32 0.06 3.31 -3.97 0 -3.96 0 0 -2.37 0 -2.37 -1.58 0 -1.58 0 0 8.69 0 8.66 -10.4 0.06 -10.42 0.06 -1.33 0.63c-0.73,0.34 -1.71,0.99 -2.21,1.44l-0.9 0.85 0 -1.7c0,-1.59 0.04,-1.79 0.75,-3.04l0.73 -1.34 0.06 -11.11c0.03,-9.06 0.09,-11.09 0.31,-11.09 0.14,0 0.59,0.49 0.99,1.09l0 0zm-26.98 16.65c-0.04,0.22 -0.97,4.48 -2.03,9.48l-1.96 9.09 -6.06 0 -6.06 0 0.66 -1.54c0.35,-0.82 2.19,-5.09 4.06,-9.47l3.4 -7.93 4.04 0c3.91,0 4.05,0.02 3.95,0.37zm20.98 10.58l0 1.68 -1.5 0c-1.7,0 -1.62,0.16 -0.77,-1.92 0.47,-1.16 0.61,-1.26 2.03,-1.42 0.18,-0.02 0.24,0.44 0.24,1.66zm-18.42 0.1c-0.61,1.54 -0.65,1.58 -1.3,1.58 -0.57,0 -0.65,-0.06 -0.55,-0.46 0.06,-0.23 0.22,-0.94 0.33,-1.57l0.22 -1.13 0.97 0 0.95 0 -0.62 1.58zm12.64 0l-0.64 1.58 -1.04 0c-0.85,0 -1.15,0.1 -1.52,0.49 -0.48,0.46 -0.5,0.57 -0.5,3.16l0 2.66 -1.57 0 -1.58 0 0 -2.66c0,-2.59 -0.02,-2.7 -0.5,-3.16 -0.37,-0.39 -0.67,-0.49 -1.48,-0.49 -0.53,0 -0.98,-0.04 -0.98,-0.1 0,-0.04 0.17,-0.55 0.41,-1.13 0.24,-0.57 0.49,-1.24 0.59,-1.5 0.16,-0.43 0.18,-0.43 4.8,-0.43l4.62 0 -0.61 1.58 0 0zm-10.01 6.31l0 1.58 -2.98 0 -2.98 0 0.12 -0.45c0.06,-0.24 0.21,-0.95 0.33,-1.58l0.24 -1.12 2.62 0 2.65 0 0 1.57zm17.37 0l0 1.58 -3.95 0 -3.95 0 0 -1.58 0 -1.57 3.95 0 3.95 0 0 1.57zm37.89 6.32l0 1.58 -44.21 0 -44.21 0 0 -1.58 0 -1.58 44.21 0 44.21 0 0 1.58z"/>
  <path class="fil1" d="M63.6 62.02l-0.7 1.22 0.42 0.27c0.87,0.56 3.41,1.45 4.98,1.71 2.82,0.49 5.2,0.32 8.06,-0.58 2.25,-0.7 2.17,-0.58 1.42,-2.15 -0.49,-1 -0.72,-1.3 -0.95,-1.21 -3.48,1.47 -7.5,1.55 -10.78,0.17 -0.66,-0.28 -1.32,-0.54 -1.47,-0.58 -0.19,-0.06 -0.51,0.3 -0.98,1.15l0 0z"/>
  <path class="fil2" d="M62.41 28.07c-1.9,0.83 -2.35,3.35 -0.86,4.84 1.15,1.15 2.84,1.23 4.07,0.15 2.52,-2.22 -0.11,-6.35 -3.21,-4.99z"/>
  <path class="fil3" d="M74.48 28.07c-1.94,0.85 -2.38,3.39 -0.83,4.86 1.26,1.21 2.94,1.21 4.15,-0.02 2.33,-2.34 -0.29,-6.16 -3.32,-4.84z"/>
  <path class="fil4" d="M65.22 36.91c-0.39,0.62 -0.75,1.21 -0.79,1.28 -0.09,0.25 1.75,1.09 3.02,1.4 2.2,0.51 4.6,0.24 6.58,-0.76 0.52,-0.28 0.92,-0.56 0.88,-0.64 -0.04,-0.07 -0.39,-0.66 -0.79,-1.28l-0.75 -1.13 -1.04 0.49c-1.51,0.7 -3.81,0.7 -5.32,0l-1.03 -0.49 -0.76 1.13 0 0z"/>
  <polygon class="fil5" points="12.36,48.92 12.36,50.43 15.38,50.43 18.4,50.43 18.4,48.92 18.4,47.41 15.38,47.41 12.36,47.41 "/>
  <polygon class="fil6" points="21.41,48.92 21.41,50.43 24.43,50.43 27.44,50.43 27.44,48.92 27.44,47.41 24.43,47.41 21.41,47.41 "/>
  <polygon class="fil7" points="30.46,48.92 30.46,50.43 33.48,50.43 36.49,50.43 36.49,48.92 36.49,47.41 33.48,47.41 30.46,47.41 "/>
  <polygon class="fil8" points="39.51,48.92 39.51,50.43 42.53,50.43 45.54,50.43 45.54,48.92 45.54,47.41 42.53,47.41 39.51,47.41 "/>
  <polygon class="fil9" points="48.56,48.92 48.56,50.43 51.57,50.43 54.59,50.43 54.59,48.92 54.59,47.41 51.57,47.41 48.56,47.41 "/>
 </g>
</svg>
