<?xml version="1.0" encoding="UTF-8"?>
<!DOCTYPE svg PUBLIC "-//W3C//DTD SVG 1.1//EN" "http://www.w3.org/Graphics/SVG/1.1/DTD/svg11.dtd">
<!-- Creator: CorelDRAW 2019 (64-Bit) -->
<svg xmlns="http://www.w3.org/2000/svg" xml:space="preserve" width="70px" height="70px" version="1.1" style="shape-rendering:geometricPrecision; text-rendering:geometricPrecision; image-rendering:optimizeQuality; fill-rule:evenodd; clip-rule:evenodd"
viewBox="0 0 70 70"
 xmlns:xlink="http://www.w3.org/1999/xlink"
 xmlns:xodm="http://www.corel.com/coreldraw/odm/2003">
 <defs>
  <style type="text/css">
   <![CDATA[
    .fil0 {fill:url(#id0);fill-rule:nonzero}
    .fil3 {fill:url(#id1);fill-rule:nonzero}
    .fil1 {fill:url(#id2);fill-rule:nonzero}
    .fil2 {fill:url(#id3);fill-rule:nonzero}
   ]]>
  </style>
  <linearGradient id="id0" gradientUnits="userSpaceOnUse" x1="1.78" y1="34.72" x2="66.83" y2="34.72">
   <stop offset="0" style="stop-opacity:1; stop-color:#317391"/>
   <stop offset="1" style="stop-opacity:1; stop-color:#786D9E"/>
  </linearGradient>
  <linearGradient id="id1" gradientUnits="userSpaceOnUse" xlink:href="#id0" x1="32.13" y1="25.48" x2="38.63" y2="25.48">
  </linearGradient>
  <linearGradient id="id2" gradientUnits="userSpaceOnUse" xlink:href="#id0" x1="28.94" y1="20.04" x2="32.06" y2="20.04">
  </linearGradient>
  <linearGradient id="id3" gradientUnits="userSpaceOnUse" xlink:href="#id0" x1="38.7" y1="20.04" x2="41.82" y2="20.04">
  </linearGradient>
 </defs>
 <g id="Layer_x0020_1">
  <metadata id="CorelCorpID_0Corel-Layer"/>
  <g id="_1717851690496">
   <g>
    <path class="fil0" d="M33.29 2.29c-4.77,0.76 -8.77,3.68 -10.86,7.93 -1.38,2.83 -1.66,4.59 -1.43,9.12 0.2,4.14 0.02,5.62 -1.05,8.46 -1.46,3.86 -1.77,6.19 -1.33,10.15l0.18 1.56 -0.41 0.58c-0.21,0.33 -0.45,0.54 -0.5,0.48 -0.05,-0.06 -0.35,-0.79 -0.68,-1.6 -0.32,-0.83 -0.73,-1.78 -0.89,-2.12 -1.1,-2.22 -4.22,-2.33 -5.55,-0.2 -0.35,0.58 -0.4,0.8 -0.4,1.63 0,0.65 0.08,1.09 0.24,1.39l0.24 0.45 -1.39 0c-1.6,0 -2.35,-0.18 -3.77,-0.87 -1.56,-0.76 -2.55,-0.61 -3.44,0.5l-0.42 0.53 -0.05 2.16c-0.05,2.52 0.1,3.14 0.89,3.97 1.05,1.08 4.29,2.39 5.96,2.39l0.72 0 0 1.62c0,0.9 -0.19,3.99 -0.41,6.89 -0.23,2.89 -0.38,5.52 -0.34,5.86 0.21,1.5 1.32,2.96 2.76,3.63 0.67,0.32 0.95,0.37 2.12,0.37 1.1,0 1.48,-0.06 1.98,-0.29 1.31,-0.61 1.54,-0.93 4.48,-6.43 1.52,-2.83 2.79,-5.15 2.83,-5.15 0.04,0 0.21,0.45 0.38,0.99 0.18,0.54 0.56,1.37 0.85,1.83l0.53 0.86 0 4.12 0 4.13 1.09 0 1.08 0 0 -4.48 0 -4.49 -0.65 -0.98c-0.93,-1.39 -1.18,-2.25 -1.18,-4.15 0,-1.16 0.07,-1.76 0.26,-2.36 0.31,-0.92 1.04,-2.11 1.78,-2.82l0.51 -0.5 -0.73 -0.84 -0.72 -0.84 -0.85 0.91c-0.67,0.72 -1.07,1.37 -1.93,3.04 -0.58,1.16 -1.99,3.83 -3.12,5.92l-2.04 3.8 0 -6.58 0 -6.57 0.84 -2.1c0.93,-2.35 1.22,-2.87 1.96,-3.6 1.28,-1.23 2.39,-1.56 5.33,-1.56l2.1 0.02 3.19 5.85c3.43,6.31 3.41,6.29 4.31,5.98 0.3,-0.09 0.61,-0.57 1.59,-2.36l1.22 -2.23 0.06 7.49c0.07,7.39 0.07,7.52 0.36,7.75 0.16,0.12 1.24,0.4 2.67,0.69l2.4 0.46 0 2.28 0 2.27 1.08 0 1.09 0 0 -2.03c0,-1.13 0.05,-2.03 0.1,-2.03 0.07,0 1.03,0.19 2.13,0.4 1.21,0.25 2.43,0.41 3.07,0.41l1.05 0 0.44 0.83c1.62,3.03 5.65,3.25 7.56,0.39l0.59 -0.88 1.38 -0.23c0.74,-0.14 1.5,-0.27 1.67,-0.31 0.51,-0.13 1.24,-0.87 1.41,-1.44 0.09,-0.29 0.24,-0.53 0.35,-0.53 0.11,0 0.34,-0.15 0.51,-0.34l0.34 -0.32 0 -9.64 0 -9.64 -0.34 -0.33c-0.17,-0.19 -0.46,-0.34 -0.63,-0.34 -0.84,0 -10.74,1.78 -11.3,2.02 -0.7,0.31 -0.62,0.4 -1.22,-1.18 -0.2,-0.54 -0.59,-1.32 -0.88,-1.76l-0.5 -0.77 0.18 -1.56c0.44,-3.92 0.09,-6.56 -1.32,-10.14 -1.04,-2.63 -1.27,-4.47 -1.06,-8.6 0.22,-4.24 -0.04,-6.07 -1.23,-8.6 -1.87,-3.99 -5.37,-6.91 -9.6,-7.99 -1.48,-0.38 -4.24,-0.54 -5.64,-0.33l0 0zm5.14 2.43c1.19,0.31 2.97,1.11 3.97,1.8 2.13,1.45 3.96,3.96 4.75,6.5 0.54,1.73 0.62,2.87 0.44,6.21 -0.2,4.01 -0.01,5.92 0.86,8.38 0.19,0.5 0.55,1.53 0.81,2.27 0.72,2.04 0.94,3.56 0.86,5.87 -0.04,1.07 -0.11,1.98 -0.15,2.02 -0.04,0.04 -0.35,-0.05 -0.69,-0.21 -1.21,-0.57 -2.13,-0.7 -5.22,-0.7 -2.11,0 -2.97,-0.04 -3.09,-0.16 -0.11,-0.11 -0.17,-0.82 -0.17,-2.36l0 -2.18 0.72 -0.47c2.32,-1.55 4.11,-4.41 4.56,-7.26 0.08,-0.53 0.15,-2.44 0.15,-4.21 0,-2.9 -0.03,-3.28 -0.25,-3.56 -0.18,-0.23 -0.61,-0.36 -1.92,-0.62 -4.27,-0.85 -8.55,-2.87 -11.82,-5.61 -1.25,-1.04 -1.74,-0.94 -2.5,0.58 -0.99,1.94 -2.41,3.7 -3.96,4.85 -1.34,1.01 -1.25,0.66 -1.25,4.47 0,3.67 0.11,4.63 0.76,6.35 0.69,1.87 2.31,3.91 3.96,5.01l0.71 0.47 0 2.18c0,1.54 -0.06,2.25 -0.17,2.36 -0.12,0.12 -0.98,0.16 -3.09,0.16 -3.06,0 -3.9,0.11 -5.2,0.68 -0.37,0.15 -0.71,0.25 -0.75,0.19 -0.04,-0.04 -0.08,-1.18 -0.08,-2.53 0.01,-2.84 0.16,-3.69 1.19,-6.35 1.28,-3.29 1.54,-5.18 1.31,-9.62 -0.13,-2.39 -0.13,-3.32 0,-4.19 0.78,-5.38 4.73,-9.49 10.08,-10.52 1.33,-0.26 3.78,-0.15 5.18,0.2l0 0zm-5.87 8.69c3.16,2.27 6.9,3.88 11.13,4.81l0.39 0.08 -0.05 3.08c-0.05,2.92 -0.07,3.13 -0.41,4.07 -0.5,1.41 -1.12,2.39 -2.14,3.42 -1.03,1.01 -2.01,1.64 -3.42,2.14 -0.85,0.3 -1.2,0.35 -2.61,0.36 -1.32,0 -1.81,-0.05 -2.58,-0.29 -2.21,-0.71 -4.19,-2.38 -5.19,-4.38 -0.83,-1.66 -0.98,-2.52 -0.98,-5.91l0 -2.85 0.9 -0.75c1.1,-0.89 2.47,-2.45 3.21,-3.67 0.31,-0.5 0.58,-0.92 0.6,-0.92 0.01,0 0.53,0.36 1.15,0.81l0 0zm2.82 20.11c1.22,0 2.07,-0.07 2.55,-0.21l0.7 -0.2 0 1.91c0,2.2 0.17,2.74 1.02,3.43l0.5 0.42 -0.64 1.17 -0.63 1.16 -3.5 0 -3.5 0 -0.63 -1.16 -0.64 -1.17 0.5 -0.42c0.85,-0.69 1.02,-1.23 1.02,-3.43l0 -1.91 0.71 0.2c0.47,0.14 1.32,0.21 2.54,0.21l0 0zm-21.19 4.05c0.15,0.18 0.58,1.1 0.98,2.07l0.69 1.77 0 2.6 0 2.62 -3.89 0c-2.84,0 -4.1,-0.06 -4.59,-0.19 -0.95,-0.25 -3.14,-1.39 -3.32,-1.7 -0.17,-0.35 -0.19,-3.81 0,-3.81 0.08,0 0.52,0.19 0.97,0.42 1.5,0.75 2.56,0.94 5.43,0.94 2.54,0 2.56,0 2.89,-0.34 0.47,-0.46 0.42,-0.86 -0.27,-2.24 -0.34,-0.66 -0.61,-1.34 -0.61,-1.49 0,-0.42 0.59,-0.95 1.06,-0.95 0.23,0 0.5,0.12 0.66,0.3zm33.97 1.86c1.14,0.44 2.29,1.56 2.88,2.79 0.26,0.54 0.47,1.04 0.47,1.13 0,0.08 -0.24,0.04 -0.61,-0.13 -0.36,-0.16 -2.42,-0.57 -5.15,-1.03l-4.53 -0.76 0.64 -1.2 0.64 -1.21 2.44 0.05c2.14,0.05 2.53,0.09 3.22,0.36zm-10.86 4.65c-0.21,0.39 -0.71,1.31 -1.09,2.03 -0.4,0.73 -0.76,1.33 -0.83,1.33 -0.07,0 -0.43,-0.6 -0.83,-1.33 -0.38,-0.72 -0.88,-1.64 -1.09,-2.03l-0.41 -0.71 2.33 0 2.33 0 -0.41 0.71 0 0zm8.02 0.24c2.25,0.38 4.35,0.77 4.66,0.9 0.52,0.19 1.4,1.01 1.4,1.3 0,0.21 -0.69,0.11 -5.59,-0.87l-4.99 -0.99 0 -0.5c0,-0.38 0.06,-0.52 0.22,-0.52 0.11,0 2.05,0.32 4.3,0.68l0 0zm19.34 -0.16l0 0.5 -4.97 0.99c-4.82,0.95 -5.6,1.07 -5.6,0.88 0,-0.22 0.73,-1.02 1.12,-1.22 0.4,-0.2 8.18,-1.63 9.09,-1.65 0.34,-0.02 0.36,0.02 0.36,0.5l0 0zm-19.21 3.62l4.03 0.81 0 6.48 0 6.5 -0.3 -0.06c-0.18,-0.02 -2.13,-0.42 -4.34,-0.87l-4.04 -0.8 0 -6.49 0 -6.48 0.31 0.05c0.17,0.03 2.12,0.43 4.34,0.86zm19.21 3.51l0 4.39 -0.59 -0.21c-0.57,-0.21 -0.72,-0.21 -2.55,0.08 -2.51,0.4 -3.23,0.61 -3.66,1.07 -0.65,0.68 -0.79,1.23 -0.79,3.09 0,0.93 -0.05,1.69 -0.12,1.69 -0.07,0 -0.31,0.04 -0.54,0.08l-0.42 0.09 0 -6.48 0 -6.5 4.17 -0.84c2.29,-0.46 4.25,-0.84 4.34,-0.84 0.12,-0.01 0.16,0.95 0.16,4.38l0 0zm-48.8 -1.41l0 1.08 -2.17 0 -2.17 0 0 -1.08 0 -1.08 2.17 0 2.17 0 0 1.08zm37.96 5.42l0 6.51 -1.09 0 -1.08 0 0 -6.51 0 -6.5 1.08 0 1.09 0 0 6.5zm-37.96 2.71c0,4.11 -0.03,4.98 -0.21,5.4 -0.92,2.17 -3.83,2.17 -4.74,-0.03 -0.2,-0.47 -0.19,-0.84 0.15,-5.38l0.38 -4.87 2.21 0 2.21 0 0 4.88 0 0zm47.65 1.63l0 2.09 -2.13 0.36 -2.14 0.36 0 -2.08c0,-1.5 0.04,-2.1 0.18,-2.18 0.21,-0.15 3.32,-0.71 3.75,-0.68l0.34 0.03 0 2.1 0 0zm-6.03 4.07c0,0.07 0.22,0.27 0.49,0.46l0.48 0.32 -0.35 0.24c-0.8,0.52 -2.03,0.37 -2.72,-0.34l-0.38 -0.4 0.32 -0.08c1.59,-0.36 2.16,-0.42 2.16,-0.2l0 0z"/>
    <path class="fil1" d="M29.89 18.55c-0.61,0.27 -0.95,0.81 -0.95,1.52 0,0.57 0.07,0.72 0.45,1.1 0.38,0.38 0.53,0.44 1.11,0.44 0.58,0 0.73,-0.06 1.11,-0.44 0.38,-0.38 0.45,-0.53 0.45,-1.12 0,-0.57 -0.07,-0.73 -0.42,-1.09 -0.45,-0.45 -1.25,-0.63 -1.75,-0.41l0 0z"/>
    <path class="fil2" d="M39.65 18.55c-0.61,0.27 -0.95,0.81 -0.95,1.52 0,0.57 0.07,0.72 0.45,1.1 0.38,0.38 0.53,0.44 1.11,0.44 0.58,0 0.73,-0.06 1.11,-0.44 0.38,-0.38 0.45,-0.53 0.45,-1.12 0,-0.57 -0.07,-0.73 -0.42,-1.09 -0.45,-0.45 -1.25,-0.63 -1.75,-0.41l0 0z"/>
    <path class="fil3" d="M32.13 24.07c0,0.63 0.38,1.38 1.01,2.02 0.99,1 2.05,1.24 3.36,0.8 1.05,-0.36 2.13,-1.79 2.13,-2.82 0,-0.18 -0.16,-0.22 -1.04,-0.22 -1.06,0 -1.06,0 -1.26,0.45 -0.25,0.51 -0.79,0.74 -1.32,0.55 -0.21,-0.06 -0.46,-0.31 -0.58,-0.55 -0.2,-0.45 -0.2,-0.45 -1.25,-0.45 -0.89,0 -1.05,0.04 -1.05,0.22z"/>
   </g>
  </g>
 </g>
</svg>
